<mxfile host="app.diagrams.net" modified="2024-04-21T04:12:46.575Z" agent="Mozilla/5.0 (Windows NT 10.0; Win64; x64) AppleWebKit/537.36 (KHTML, like Gecko) Chrome/123.0.0.0 Safari/537.36" version="24.2.5" etag="_jBqnbTLlsr76dkrMOSx" type="github">
  <diagram name="Page-1" id="gZ4_On_ac7qz48dhcsBo">
    <mxGraphModel>
      <root>
        <mxCell id="0" />
        <mxCell id="1" parent="0" />
      </root>
    </mxGraphModel>
  </diagram>
</mxfile>
